<svg xmlns="http://www.w3.org/2000/svg" width="400" height="400"><g fill-rule="evenodd"><path d="M150.706 112.627c-.125.125-2.72.39-5.767.588-10.003.651-15.119 1.102-17.749 1.565-6.219 1.096-11.579 2.204-14.39 2.974-1.21.332-3.01.811-4 1.065-.99.254-2.367.714-3.06 1.021-.694.308-1.628.56-2.077.56-.449 0-.918.166-1.044.369-.125.203-.805.496-1.51.651-.706.155-1.559.43-1.896.61-.337.181-2.413 1.094-4.613 2.028-3.825 1.624-8.328 3.875-12.2 6.098-.99.569-2.07 1.162-2.4 1.319a6.44 6.44 0 0 0-1 .598c-.22.173-1.93 1.336-3.8 2.586-3.474 2.321-7.411 5.22-9.2 6.774-7.469 6.486-10.741 9.661-14.393 13.967-.933 1.1-2.081 2.45-2.552 3-1.919 2.244-5.005 6.304-5.996 7.889-1.202 1.924-1.325 1.527 2.034 6.569 2.374 3.564 2.618 3.918 3.407 4.951.385.505.7 1.114.7 1.354s.151.437.336.437c.184 0 .546.405.804.9.6 1.153.837 1.515 7.16 10.927 4.141 6.164 5.202 8.009 4.851 8.432-.365.44-3.759.541-18.176.541-9.894 0-17.825.157-17.947.355-.463.749 1.284 11.193 2.151 12.858.176.337.446 1.237.601 2 .154.763.518 2.107.808 2.987.29.88.843 2.68 1.228 4 .386 1.32.928 2.94 1.206 3.6.277.66.78 1.92 1.117 2.8 2.593 6.769 3.528 9.129 3.849 9.719.205.375 1.652 3.291 3.217 6.481 1.565 3.19 3.909 7.51 5.208 9.6 1.299 2.09 2.367 3.943 2.374 4.117.007.174.198.534.424.8.226.266 1.661 2.193 3.189 4.283 1.528 2.09 2.963 4.017 3.189 4.283.226.266.411.656.411.867 0 .211.141.443.314.517.173.073 1.919 1.933 3.879 4.133 4.082 4.581 5.243 5.735 9.634 9.574 1.745 1.526 3.353 2.982 3.573 3.236.419.484 3.675 2.775 9.4 6.615 1.87 1.254 5.358 3.305 7.752 4.557a899.215 899.215 0 0 1 5 2.628c2.802 1.52 15.937 6.343 18.521 6.801 1.031.183 2.246.532 2.701.775.672.36.992.291 1.698-.367.478-.445 1.242-.923 1.699-1.062 3.327-1.012 11.516-5.288 16.088-8.402 23.485-15.993 36.877-38.857 39.453-67.355l.488-5.4 99.5-.101 99.5-.101v-43.375c0-26.15-.147-43.467-.37-43.605-.94-.58-11.186 1.678-13.019 2.869-.434.282-1.004.513-1.267.513-.519 0-6.121 3.228-7.744 4.463-2.936 2.232-4.026 3.181-6.591 5.737-2.895 2.886-4.389 4.593-5.907 6.754-.481.685-1.062 1.465-1.289 1.732-.227.267-.625.741-.884 1.052-.259.312-.947 1.443-1.527 2.514a166.791 166.791 0 0 1-1.868 3.348c-1.327 2.287-2.689 5.117-4.332 9-.465 1.1-1.003 2.36-1.196 2.8-.192.44-.744 2.15-1.226 3.8-.983 3.363-1.361 3.979-2.03 3.31-.431-.431-.611-1.684-1.539-10.735-.515-5.019-2.272-12.978-3.451-15.635-.308-.694-.56-1.534-.56-1.868 0-.334-.261-1.117-.579-1.74-.319-.622-1.25-2.572-2.07-4.332-1.776-3.814-4.135-7.773-5.997-10.067-.745-.917-1.354-1.789-1.354-1.937 0-.601-8.018-8.219-11-10.451-4.712-3.527-7.92-5.309-17.2-9.557-1.002-.459-5.722-2.008-11.691-3.838-1.429-.438-1.887-.524-12.609-2.384-4.853-.841-105.602-1.731-106.394-.939m15.489 25.338c9.435 3.316 11.973 13.864 5.021 20.867-7.789 7.845-21.192 2.406-21.355-8.667-.127-8.613 8.406-14.987 16.334-12.2m50.347.017c.23.23.705.418 1.057.418 1.711 0 5.59 4.016 6.713 6.951 5.794 15.14-16.361 24.306-23.299 9.64-1.054-2.227-1.495-8.246-.644-8.772.203-.125.483-.745.622-1.377 1.089-4.959 12.443-9.968 15.551-6.86m51.135.577c12.412 5.872 8.226 24.102-5.501 23.961-8.19-.084-15.149-10.098-11.62-16.72.351-.66.64-1.408.642-1.662.005-1.023 5.268-5.738 6.403-5.738.352 0 .81-.163 1.019-.361 1.248-1.187 6.029-.912 9.057.52M124.44 150.246c.308.244 1.07.566 1.693.715 4.033.965 8.976 6.169 10.995 11.575 1.338 3.584 1.351 33.263.015 37.162-2.028 5.922-5.894 9.762-12.585 12.5-4.185 1.712-14.364.053-17.224-2.807a22.511 22.511 0 0 0-1.437-1.26c-1.303-1.05-3.629-4.097-4.374-5.731-.351-.77-.883-1.922-1.181-2.561-.712-1.524-.8-35.561-.096-37.078l1.367-2.941c1.737-3.728 6.55-8.067 9.817-8.85.643-.154 1.35-.416 1.57-.582 1.133-.855 10.394-.97 11.44-.142m180.571 25.542c12.609 5.768 8.751 24.213-5.065 24.212-4.41-.001-9.191-2.672-10.809-6.04-.359-.748-.897-1.884-1.195-2.525-.644-1.384-.701-7.109-.079-7.896.235-.296.535-.989.667-1.539 1.282-5.328 10.674-8.868 16.481-6.212m-88.563.695c9.62 4.182 18.73 11.809 24.507 20.517 2.723 4.106 3.527 5.587 5.535 10.2 1.844 4.237 3.728 13.009 3.441 16.022l-.131 1.378-36.778.102c-20.936.058-36.93-.05-37.132-.252-.294-.294 33.089-45.344 35.829-48.35 1.055-1.157 1.216-1.144 4.729.383M374.593 268.2c0 23.54.048 33.111.107 21.269.059-11.842.059-31.102 0-42.8-.059-11.698-.107-2.009-.107 21.531m-231.888 43.683c.497.096 1.217.092 1.6-.008.382-.1-.025-.179-.905-.174-.88.004-1.193.086-.695.182m20.695.517c.66.168 11.55.305 24.2.305 12.65 0 23.54-.137 24.2-.305.66-.168-10.23-.305-24.2-.305-13.97 0-24.86.137-24.2.305m62.4 0c.66.168 11.55.305 24.2.305 12.65 0 23.54-.137 24.2-.305.66-.168-10.23-.305-24.2-.305-13.97 0-24.86.137-24.2.305" fill="#4cbcf3"/><path d="M229.8 51.072c-9.477.82-15.349 1.801-21 3.51-.99.299-2.43.671-3.2.827-.77.156-1.58.422-1.8.591-.22.169-1.03.439-1.8.6-.77.161-1.58.43-1.8.597-.22.168-.85.441-1.4.606-1.055.318-5.78 2.432-6.8 3.043-.33.197-.825.448-1.1.557-1.297.512-1.578.657-2.7 1.397-.66.435-1.47.917-1.8 1.071-3.113 1.454-11.615 8.392-15.561 12.7-.792.863-1.709 1.854-2.04 2.2-6.186 6.489-14.547 21.209-17.27 30.403-.908 3.065-1.001 3.111-6.846 3.396-36.16 1.761-63.936 13.087-86.827 35.405-6.755 6.585-16.236 18.143-16.352 19.933-.024.38 4.51 7.477 10.077 15.769 6.523 9.717 10.037 15.299 9.883 15.7-.211.551-2.302.623-18.064.623-15.337 0-17.857.082-18.051.59-.431 1.122 1.291 9.482 3.463 16.81.456 1.54.974 3.34 1.151 4 .444 1.655 1.58 5.033 2.017 6 .199.44.825 2.015 1.391 3.5 2.413 6.332 3.296 8.385 5.807 13.5 5.187 10.563 12.712 22.027 19.253 29.33l3.549 3.966c4.264 4.786 17.909 15.505 23.82 18.712 21.437 11.632 39.364 15.992 65.756 15.992 11.642 0 11.824.043 12.988 3.067.814 2.112 3.509 7.812 3.846 8.133.551.525 2.01 2.811 2.01 3.15 0 .211.155.443.344.517.189.073 1.404 1.392 2.7 2.93a59.514 59.514 0 0 0 7.756 7.65c.77.627 1.49 1.246 1.6 1.376.11.129.47.358.8.507.33.15 1.827 1.064 3.326 2.032 5.415 3.494 12.694 6.094 19.962 7.13 5.664.807 5.112 2.739 5.112-17.898 0-20.877-.828-18.594 6.748-18.594 6.555 0 7.021.174 8.308 3.098 1.597 3.631 2.272 4.986 3.336 6.702 1.793 2.893 1.97 3.192 2.362 4 .214.44 1.126 1.61 2.026 2.6.9.99 2.019 2.34 2.486 3 2.08 2.941 11.786 10.262 16.134 12.171 2.935 1.288 4.666 2.082 5.862 2.69.584.296 1.37.539 1.746.539.377 0 1.519.258 2.538.572 3.123.964 9.767 1.832 10.346 1.352.397-.33.508-4.306.508-18.159 0-20.357-.394-18.562 4.074-18.569 24.215-.04 41.755-16.814 46.317-44.296.265-1.595.602-2.9.749-2.9.147 0 .68 1.305 1.183 2.9 7.817 24.751 28.094 44.297 45.959 44.3 2.069 0 2.083-.009 2.348-1.422.147-.782.11-40.067-.081-87.3L374.6 137.8l-1.39-.132c-13.391-1.272-33.584 14.68-41.94 33.132-1.495 3.302-3.927 9.373-4.685 11.7-1.065 3.263-1.785 2.511-1.785-1.862 0-4.595-1.996-14.98-4.12-21.438-7.978-24.251-28.361-39.954-59.28-45.666-3.787-.7-6.615-.842-20.31-1.018-14.474-.186-15.942-.266-16.275-.888-.964-1.802 1.351-14.344 3.042-16.482.238-.3.551-1.041.695-1.646.145-.605.44-1.1.656-1.1.215 0 .392-.276.392-.613 0-.336.27-.716.6-.842.33-.127.6-.455.6-.73 0-1.483 10.181-10.615 11.835-10.615.311 0 .565-.138.565-.306 0-.308 2.45-1.487 5.4-2.597 3.34-1.258 6.391-1.973 9.343-2.191 1.682-.123 3.189-.423 3.351-.665.528-.793.365-22.422-.174-22.961-.67-.67-22.925-.534-31.32.192m7 61.722c9.79.186 18.925.534 20.3.772 10.722 1.86 11.18 1.946 12.609 2.384 5.969 1.83 10.689 3.379 11.691 3.838 9.28 4.248 12.488 6.03 17.2 9.557 2.982 2.232 11 9.85 11 10.451 0 .148.609 1.02 1.354 1.937 1.862 2.294 4.221 6.253 5.997 10.067.82 1.76 1.751 3.71 2.07 4.332.318.623.579 1.406.579 1.74 0 .334.252 1.174.56 1.868 1.179 2.657 2.936 10.616 3.451 15.635.928 9.051 1.108 10.304 1.539 10.735.669.669 1.047.053 2.03-3.31.482-1.65 1.034-3.36 1.226-3.8.193-.44.731-1.7 1.196-2.8 1.643-3.883 3.005-6.713 4.332-9 .446-.77 1.287-2.276 1.868-3.348.58-1.071 1.268-2.202 1.527-2.514.259-.311.657-.785.884-1.052.227-.267.808-1.047 1.289-1.732 1.518-2.161 3.012-3.868 5.907-6.754 2.565-2.556 3.655-3.505 6.591-5.737 1.623-1.235 7.225-4.463 7.744-4.463.263 0 .833-.231 1.267-.513 1.772-1.152 12.07-3.455 12.967-2.9.401.247 1.021 170.796.628 172.588l-.29 1.317-2.058-.211c-12.528-1.285-23.244-7.87-32.659-20.07-1.872-2.426-7.999-12.29-7.999-12.878 0-.117-.257-.779-.571-1.473-.314-.693-.954-2.16-1.422-3.26-.468-1.1-1.007-2.36-1.199-2.8-.192-.44-.833-2.375-1.425-4.3-1.514-4.921-1.751-4.762-3.001 2.017-.738 4-2.82 11.866-3.568 13.483-.204.44-.748 1.7-1.209 2.8-6.242 14.893-18.866 23.847-36.605 25.963-2.86.341-6.64.818-8.4 1.06-2.206.304-10.344.364-26.2.194-12.65-.136-26.15-.225-30-.199-50.111.348-81.65-.359-89.6-2.008-.99-.205-2.61-.482-3.6-.615-2.18-.292-6.88-1.309-8.8-1.903-.77-.238-2.12-.563-3-.721-2.354-.424-15.64-5.346-18.248-6.761a899.215 899.215 0 0 0-5-2.628c-2.394-1.252-5.882-3.303-7.752-4.557-5.725-3.84-8.981-6.131-9.4-6.615-.22-.254-1.828-1.71-3.573-3.236-4.391-3.839-5.552-4.993-9.634-9.574-1.96-2.2-3.706-4.06-3.879-4.133-.173-.074-.314-.306-.314-.517 0-.211-.185-.601-.411-.867-.226-.266-1.661-2.193-3.189-4.283-1.528-2.09-2.963-4.017-3.189-4.283-.226-.266-.417-.626-.424-.8-.007-.174-1.075-2.027-2.374-4.117-1.299-2.09-3.643-6.41-5.208-9.6-1.565-3.19-3.012-6.106-3.217-6.481-.321-.59-1.256-2.95-3.849-9.719-.337-.88-.84-2.14-1.117-2.8-.278-.66-.82-2.28-1.206-3.6-.385-1.32-.938-3.12-1.228-4-.29-.88-.654-2.224-.808-2.987-.155-.763-.425-1.663-.601-2-.867-1.665-2.614-12.109-2.151-12.858.122-.198 8.053-.355 17.947-.355 14.417 0 17.811-.101 18.176-.541.351-.423-.71-2.268-4.851-8.432-6.323-9.412-6.56-9.774-7.16-10.927-.258-.495-.62-.9-.804-.9-.185 0-.336-.197-.336-.437s-.315-.849-.7-1.354c-.789-1.033-1.033-1.387-3.407-4.951-3.359-5.042-3.236-4.645-2.034-6.569.991-1.585 4.077-5.645 5.996-7.889.471-.55 1.619-1.9 2.552-3 3.652-4.306 6.924-7.481 14.393-13.967 1.789-1.554 5.726-4.453 9.2-6.774 1.87-1.25 3.58-2.413 3.8-2.586a6.44 6.44 0 0 1 1-.598c.33-.157 1.41-.75 2.4-1.319 3.872-2.223 8.375-4.474 12.2-6.098 2.2-.934 4.276-1.847 4.613-2.028.337-.18 1.19-.455 1.896-.61.705-.155 1.385-.448 1.51-.651.126-.203.595-.369 1.044-.369.449 0 1.383-.252 2.077-.56.693-.307 2.07-.767 3.06-1.021.99-.254 2.79-.733 4-1.065 2.811-.77 8.171-1.878 14.39-2.974 2.63-.463 7.746-.914 17.749-1.565 3.047-.198 5.642-.463 5.767-.588.345-.345 65.873-.218 86.094.167m-122.6 37.075c-.44.119-.98.353-1.2.519-.22.166-.927.428-1.57.582-3.267.783-8.08 5.122-9.817 8.85l-1.367 2.941c-.704 1.517-.616 35.554.096 37.078.298.639.83 1.791 1.181 2.561.745 1.634 3.071 4.681 4.374 5.731.499.402 1.146.969 1.437 1.26 2.86 2.86 13.039 4.519 17.224 2.807 6.691-2.738 10.557-6.578 12.585-12.5 1.336-3.899 1.323-33.578-.015-37.162-2.019-5.406-6.962-10.61-10.995-11.575-.623-.149-1.385-.471-1.693-.715-.583-.462-8.811-.764-10.24-.377m8.937.78c6.386 1.602 10.364 5.298 13.722 12.751.999 2.217.994 31.471-.006 35.005-5.257 18.576-30.871 18.518-36.239-.081-1.14-3.95-.741-32.901.496-35.966 3.649-9.047 12.943-13.987 22.027-11.709m88.582 25.451c-2.74 3.006-36.123 48.056-35.829 48.35.202.202 16.196.31 37.132.252l36.778-.102.131-1.378c.287-3.013-1.597-11.785-3.441-16.022-2.008-4.613-2.812-6.094-5.535-10.2-5.777-8.708-14.887-16.335-24.507-20.517-3.513-1.527-3.674-1.54-4.729-.383" fill="#2e789a"/><path d="M158.491 137.988c-10.864 3.909-11.754 18.13-1.452 23.201 11.527 5.675 22.983-7.625 15.878-18.433-2.877-4.376-9.465-6.554-14.426-4.768m50.016-.032c-3.555 1.324-6.985 4.466-7.516 6.886-.139.632-.419 1.252-.622 1.377-.851.526-.41 6.545.644 8.772 6.938 14.666 29.093 5.5 23.299-9.64-1.123-2.935-5.002-6.951-6.713-6.951-.352 0-.827-.188-1.057-.418-.846-.846-5.791-.862-8.035-.026m51.293-.494c-.44.118-.971.378-1.18.577-.209.198-.667.361-1.019.361-1.135 0-6.398 4.715-6.403 5.738-.002.254-.291 1.002-.642 1.662-2.64 4.955.808 12.727 6.933 15.625 10.208 4.829 21.413-6.583 16.5-16.804-2.377-4.946-9.353-8.465-14.189-7.159m34.8 38.535c-2.575 1.242-5.658 4.291-6.07 6.003-.132.55-.432 1.243-.667 1.539-.622.787-.565 6.512.079 7.896.298.641.836 1.777 1.195 2.525 3.106 6.467 13.566 8.05 19.301 2.921 10.796-9.655-.808-27.168-13.838-20.884M175.469 225.5c-.098.165-.309 2.154-.468 4.421-2.346 33.343-22.465 62.103-52.801 75.48-5.461 2.407-6.167 2.983-3.7 3.017.715.009 2.02.277 2.9.594.88.317 2.23.581 3 .588.77.006 2.48.261 3.8.566 6.402 1.477 14.408 1.634 83.2 1.634 67.195 0 72.804-.103 77.2-1.413 11.662-3.475 15.641-5.678 21.887-12.115 2.937-3.026 7.913-10.11 7.913-11.263 0-.139.37-1.098.822-2.131l1.172-2.678c.192-.44.73-2.15 1.196-3.8.465-1.65 1.108-3.876 1.428-4.946.32-1.07.582-2.33.582-2.8.001-.995 1.144-6.64 1.444-7.125.515-.833.985-.074 1.961 3.171.58 1.925 1.211 3.86 1.403 4.3.191.44.718 1.645 1.17 2.678.452 1.033.822 1.993.822 2.132 0 .323 2.425 5.14 3.518 6.99.455.77 1.313 2.3 1.906 3.4.594 1.1 1.199 2.09 1.347 2.2.147.11 1.512 1.82 3.034 3.8 9.239 12.024 22.059 19.597 33.495 19.788.662.011.7-2.317.7-43.388v-43.4h-99.376c-54.657 0-99.457.135-99.555.3" fill="#c0def4"/><path d="M224.402 23.798c-.379.457-1.393.602-4.202.602-2.803 0-3.823.146-4.2.6-.372.449-1.371.6-3.96.6-2.275 0-3.733.187-4.251.546-.434.301-1.86.634-3.169.74-1.309.106-2.449.4-2.533.654-.085.253-.909.46-1.831.46-.923 0-2.033.245-2.467.545-.434.3-1.629.668-2.656.82-1.027.151-2.084.535-2.349.855-.265.319-1.09.58-1.833.58-.934 0-1.351.185-1.351.6 0 .445-.468.6-1.813.6-1.242 0-1.885.189-2.042.6-.13.337-.725.6-1.359.6-.621 0-1.399.27-1.729.6-.33.33-1.153.6-1.828.6-.826 0-1.229.197-1.229.6 0 .394-.395.6-1.151.6-.633 0-1.375.27-1.649.6-.274.33-.842.6-1.262.6-.419 0-.867.27-.993.6-.128.333-.722.6-1.334.6-1.066 0-3.075 1.23-3.731 2.286-.176.283-.851.514-1.5.514-.782 0-1.18.202-1.18.6 0 .375-.379.6-1.013.6-.556 0-1.109.254-1.228.564-.12.31-.654.673-1.188.808-.534.134-.971.42-.971.636 0 .215-.36.392-.8.392-.444 0-.8.267-.8.6 0 .33-.347.6-.771.6-.425 0-1.01.235-1.3.522a4.204 4.204 0 0 1-1.229.788c-.385.146-.7.451-.7.677 0 .227-.242.413-.538.413-.296 0-.864.36-1.262.8-.398.44-.966.8-1.262.8-.296 0-.538.27-.538.6 0 .33-.27.6-.6.6-.33 0-.6.249-.6.553 0 .305-.315.669-.7.81-1.361.499-2.9 1.486-2.9 1.859 0 .208-.233.378-.519.378-.285 0-.96.532-1.5 1.183-.539.651-1.206 1.191-1.481 1.2-.275.009-.5.203-.5.43 0 .228-.54.942-1.2 1.587-.66.645-1.2 1.359-1.2 1.587 0 .227-.27.413-.6.413-.33 0-.6.27-.6.6 0 .33-.27.6-.6.6-.33 0-.6.27-.6.6 0 .33-.201.6-.447.6-.696 0-3.553 3.028-3.553 3.765 0 .363-.27.764-.6.89-.33.127-.6.487-.6.8 0 .314-.27.674-.6.8-.33.127-.6.481-.6.788 0 .306-.27.557-.6.557-.33 0-.6.338-.6.751s-.27.975-.6 1.249c-.33.274-.6.746-.6 1.049 0 .303-.27.551-.6.551-.334 0-.6.356-.6.804 0 .442-.36 1.112-.8 1.489-.44.377-.8.838-.8 1.024 0 .187-.27.61-.6.94-.33.33-.6.928-.6 1.329 0 .401-.27.832-.6.959-.33.126-.6.666-.6 1.2 0 .533-.27 1.073-.6 1.2-.33.126-.6.686-.6 1.242 0 .968-.104 1.013-2.324 1.013-1.423 0-2.624.227-3.1.587-.513.388-1.764.592-3.689.6-2.211.01-2.968.157-3.142.613-.179.466-.963.6-3.499.6-2.154 0-3.541.191-4.068.56-.439.308-1.824.688-3.077.845-1.252.156-2.484.534-2.738.84-.278.335-1.235.555-2.412.555-1.468 0-1.951.149-1.951.6 0 .461-.513.6-2.213.6-1.597 0-2.276.167-2.442.6-.132.344-.73.6-1.4.6-.671 0-1.268.256-1.4.6-.155.404-.79.6-1.945.6s-1.79.196-1.945.6c-.133.346-.73.6-1.414.6-.651 0-1.454.27-1.784.6-.33.33-1.068.6-1.641.6s-1.137.249-1.253.553c-.117.304-.921.666-1.788.805-.866.138-1.575.429-1.575.647 0 .217-.246.395-.546.395-.3 0-1.004.36-1.563.8-.56.44-1.484.8-2.054.8-.655 0-1.037.221-1.037.6 0 .33-.347.6-.771.6-.425 0-1.011.24-1.304.533-.293.292-1.026.656-1.629.807-.603.151-1.096.452-1.096.668 0 .215-.36.392-.8.392-.444 0-.8.267-.8.6 0 .375-.379.6-1.013.6-.556 0-1.116.27-1.242.6-.127.33-.558.6-.959.6-.401 0-.967.235-1.257.522a4.204 4.204 0 0 1-1.229.788c-.385.146-.7.433-.7.638 0 .206-.54.562-1.2.792-.66.23-1.2.608-1.2.839 0 .232-.27.421-.6.421-.33 0-.6.27-.6.6 0 .33-.27.6-.6.6-.33 0-.6.27-.6.6 0 .375-.379.6-1.013.6-.599 0-1.494.491-2.187 1.2-.645.66-1.269 1.2-1.387 1.2-.192 0-.615.354-2.647 2.219-.348.319-.843.581-1.1.581-.256 0-.466.27-.466.6 0 .33-.27.6-.6.6-.33 0-.6.27-.6.6 0 .33-.27.6-.6.6-.33 0-.6.27-.6.6 0 .33-.276.6-.613.6-.336 0-.716.27-.842.6-.127.33-.481.6-.788.6-.306 0-.557.27-.557.6 0 .33-.27.6-.6.6-.33 0-.6.27-.6.6 0 .33-.27.6-.6.6-.33 0-.6.27-.6.6 0 .33-.27.6-.6.6-.33 0-.6.27-.6.6 0 .33-.27.6-.6.6-.33 0-.6.276-.6.613 0 .336-.27.716-.6.842-.33.127-.6.481-.6.788 0 .306-.27.557-.6.557-.33 0-.6.27-.6.6 0 .33-.245.6-.544.6-.299 0-.884.465-1.3 1.032a41.744 41.744 0 0 1-1.456 1.862c-.385.455-.7 1.071-.7 1.367 0 .297-.27.539-.6.539-.33 0-.6.251-.6.557 0 .307-.27.661-.6.788-.33.126-.6.506-.6.842 0 .337-.27.613-.6.613-.4 0-.6.4-.6 1.2 0 .8-.2 1.2-.6 1.2-.33 0-.6.27-.6.6 0 .33-.27.6-.6.6-.33 0-.6.27-.6.6 0 .33-.184.6-.409.6-.224 0-.626.495-.891 1.1-.266.605-.712 1.244-.992 1.42-.279.176-.508.562-.508.857 0 .296-.27.641-.6.768-.33.126-.6.686-.6 1.242 0 .634-.225 1.013-.6 1.013-.33 0-.6.251-.6.557 0 .307-.27.661-.6.788-.33.126-.6.686-.6 1.242 0 .634-.225 1.013-.6 1.013-.4 0-.6.4-.6 1.2 0 .8-.2 1.2-.6 1.2-.366 0-.6.373-.6.958 0 .526-.542 1.537-1.204 2.246-.662.709-1.309 1.705-1.436 2.214-.128.508-.486 1.021-.796 1.141-.31.119-.564.652-.564 1.186 0 .533-.27 1.073-.6 1.2-.351.134-.6.734-.6 1.442 0 .812-.199 1.213-.6 1.213-.394 0-.6.395-.6 1.151 0 .633-.27 1.375-.6 1.649-.33.274-.6 1.106-.6 1.849 0 .934-.185 1.351-.6 1.351-.395 0-.6.395-.6 1.157 0 .66-.258 1.256-.6 1.388-.411.157-.6.8-.6 2.042 0 .997-.18 1.813-.4 1.813-.26 0-.4 5.4-.4 15.4s.14 15.4.4 15.4c.233 0 .4 1.333.4 3.2 0 2.578.117 3.2.6 3.2.442 0 .6.461.6 1.751 0 1.069.234 1.945.6 2.249.361.3.6 1.175.6 2.2 0 1.025.239 1.9.6 2.2.366.304.6 1.18.6 2.249 0 1.29.158 1.751.6 1.751.417 0 .6.419.6 1.371 0 .755.27 1.642.6 1.972.33.33.6 1.153.6 1.828 0 .773.203 1.229.547 1.229.34 0 .632.63.77 1.658.122.911.393 1.766.602 1.9.209.133.51.839.668 1.569.159.73.541 1.424.851 1.543.331.127.562.778.562 1.585 0 .849.228 1.458.6 1.6.33.127.6.667.6 1.2 0 .534.27 1.074.6 1.2.335.129.6.723.6 1.345s.265 1.216.6 1.345c.33.126.6.691.6 1.255s.27 1.129.6 1.255c.33.127.6.667.6 1.2 0 .534.259 1.069.576 1.191.316.121.69.746.831 1.387.141.642.422 1.167.625 1.167.202 0 .368.276.368.613 0 .336.259.711.576.833.316.121.69.746.831 1.387.141.642.512 1.167.825 1.167.364 0 .568.43.568 1.2 0 .8.2 1.2.6 1.2.33 0 .6.338.6.751s.27.975.6 1.249c.33.274.6.746.6 1.049 0 .303.27.551.6.551.375 0 .6.379.6 1.013 0 .556.27 1.116.6 1.242.33.127.6.571.6.988 0 .416.25.757.557.757.306 0 .661.417.789.927s1.044 1.815 2.035 2.9c.991 1.085 1.805 2.288 1.81 2.673.005.385.279.7.609.7.33 0 .6.276.6.613 0 .336.27.716.6.842.33.127.6.481.6.788 0 .306.27.557.6.557.33 0 .6.32.6.711 0 .391.54 1.302 1.2 2.025.66.722 1.2 1.482 1.2 1.689 0 .206.27.375.6.375.33 0 .6.27.6.6 0 .33.172.6.382.6.556 0 2.316 1.849 2.595 2.726.131.414.685.956 1.231 1.205.545.248.992.636.992.86 0 .225.27.409.6.409.33 0 .6.174.6.387 0 .212.63 1.016 1.4 1.786.77.77 1.4 1.591 1.4 1.824 0 .232.45.594 1 .803.55.209 1 .553 1 .763 0 .211.36.497.8.637.44.14.8.512.8.827 0 .315.27.573.6.573.33 0 .6.27.6.6 0 .33.27.6.6.6.33 0 .6.27.6.6 0 .33.27.6.6.6.33 0 .6.27.6.6 0 .33.27.6.6.6.33 0 .6.17.6.378 0 .361 1.156 1.104 3.1 1.991.495.226.9.596.9.821 0 .226.27.41.6.41.33 0 .6.27.6.6 0 .33.18.6.4.6.22 0 .76.36 1.2.8.44.44 1.07.8 1.4.8.33 0 .6.27.6.6 0 .33.251.6.557.6.307 0 .661.27.788.6.126.33.666.6 1.2.6.533 0 1.073.27 1.2.6.126.33.486.6.8.6.313 0 .673.27.8.6.126.33.686.6 1.242.6.634 0 1.013.225 1.013.6 0 .33.248.6.551.6.303 0 .775.27 1.049.6.274.33.836.6 1.249.6.413 0 .751.178.751.395 0 .217.608.648 1.351.959.743.31 1.474.763 1.624 1.005.15.243.712.441 1.249.441.601 0 .976.231.976.6 0 .375.379.6 1.013.6.556 0 1.116.27 1.242.6.129.335.723.6 1.345.6s1.216.265 1.345.6c.134.351.734.6 1.442.6.812 0 1.213.199 1.213.6 0 .395.395.6 1.157.6.66 0 1.256.258 1.388.6.131.343.728.6 1.393.6.64 0 1.388.27 1.662.6.274.33 1.087.6 1.806.6.766 0 1.399.237 1.528.572.121.315 1.034.694 2.03.843.996.15 2.018.522 2.272.828.254.307.935.563 1.513.57.578.007 1.4.277 1.827.6.428.323 1.623.587 2.658.587 1.302 0 1.951.184 2.111.6.153.398.781.6 1.871.6.925 0 1.903.262 2.241.6.401.4 1.422.604 3.072.613 1.536.008 2.765.235 3.247.6.553.417 1.841.587 4.458.587 2.902 0 3.729.127 3.911.6.184.481 1.067.6 4.442.6 3.478 0 4.213.105 4.213.6 0 .506.909.6 5.782.6 6.243 0 7.818.57 7.818 2.831 0 .437.27.898.6 1.024.33.127.6.481.6.788 0 .306.27.557.6.557.375 0 .6.379.6 1.013 0 .556.27 1.116.6 1.242.33.127.6.481.6.788 0 .306.27.557.6.557.33 0 .6.27.6.6 0 .33.27.6.6.6.33 0 .6.177.6.393 0 .216.63 1.041 1.4 1.834.77.793 1.4 1.618 1.4 1.833 0 .66 4.555 4.728 5.3 4.734.385.003.7.276.7.606 0 .33.27.6.6.6.33 0 .6.239.6.53 0 .644 1.666 2.27 2.326 2.27.261 0 .474.27.474.6 0 .33.193.6.429.6.235 0 .698.27 1.028.6.33.33.947.6 1.372.6.424 0 .771.27.771.6 0 .33.27.6.6.6.33 0 .6.186.6.413 0 .226.315.531.7.677.385.146.938.5 1.229.788.29.287.856.522 1.257.522.401 0 .832.27.959.6.126.33.686.6 1.242.6.593 0 1.013.228 1.013.55 0 .303.55.66 1.223.795.673.134 1.496.517 1.829.85.333.333 1.11.605 1.728.605.617 0 1.346.27 1.62.6.286.345 1.158.6 2.049.6 1.112 0 1.551.17 1.551.6 0 .471.551.6 2.557.6 1.904 0 2.616.153 2.788.6.177.463.95.6 3.393.6 2.334 0 3.296.158 3.665.604.436.525 2.811.591 18.149.5L239 376.6l.114-4.3c.104-3.97.173-4.3.9-4.3.432 0 .786.27.786.6 0 .33.338.6.751.6s.96.252 1.216.561c.256.308.93.677 1.498.82.567.142 1.293.52 1.612.839.319.319.972.586 1.452.593.479.007 1.22.277 1.647.6.428.323 1.468.587 2.313.587.996 0 1.617.211 1.766.6.178.462.946.6 3.345.6s3.167.138 3.345.6c.18.471.995.6 3.793.6 2.68 0 3.688.149 4.062.6.588.708 32.496.906 33.6.209.518-.328.615-3.151.711-20.666.119-21.892.059-21.343 2.338-21.343.934 0 1.351-.185 1.351-.6 0-.434.446-.6 1.613-.6 1.034 0 1.691-.207 1.833-.576.121-.316.746-.69 1.387-.831.642-.141 1.167-.408 1.167-.593s.552-.458 1.227-.606c.675-.148 1.324-.522 1.443-.832.118-.309.534-.562.924-.562.389 0 .932-.27 1.206-.6.274-.33.746-.6 1.049-.6.303 0 .551-.27.551-.6 0-.33.347-.6.771-.6.425 0 1.042-.27 1.372-.6.33-.33.793-.6 1.028-.6a.423.423 0 0 0 .429-.413c0-.226.278-.519.617-.649.577-.221 2.572-1.835 4.25-3.438.974-.93 2.21-.887 2.826.1.275.44.726.8 1.003.8.277 0 .504.27.504.6 0 .33.27.6.6.6.33 0 .6.27.6.6 0 .33.27.6.6.6.33 0 .6.27.6.6 0 .33.248.6.551.6.303 0 .775.27 1.049.6.274.33.836.6 1.249.6.413 0 .751.27.751.6 0 .333.356.6.8.6.444 0 .8.267.8.6 0 .4.4.6 1.2.6.77 0 1.2.204 1.2.568 0 .313.525.684 1.167.825.641.141 1.266.515 1.387.831.122.317.475.576.784.576.31 0 .788.27 1.062.6.274.33 1.022.6 1.662.6.665 0 1.262.257 1.393.6.128.334.723.6 1.339.6.609 0 1.332.27 1.606.6.282.339 1.154.6 2.006.6.972 0 1.59.213 1.739.6.172.45.909.603 2.942.613 1.749.008 2.989.221 3.489.6.527.398 1.767.587 3.851.587 2.245 0 3.209.162 3.573.6.427.514 2.692.6 15.849.6H400V110.8h-16.813c-14.575 0-16.843.08-17.042.6-.174.452-.901.6-2.939.6-1.919 0-2.853.175-3.206.6-.347.419-1.269.6-3.049.6-2.001 0-2.551.129-2.551.6 0 .434-.446.6-1.613.6-1.064 0-1.69.204-1.842.6-.141.367-.747.6-1.559.6-.731 0-1.599.27-1.929.6-.33.33-.838.608-1.128.617-.291.01-1.249.459-2.129.998-.88.539-2.005 1.19-2.5 1.447-.495.256-.9.708-.9 1.002 0 .329-.464.536-1.2.536-.8 0-1.2.2-1.2.6 0 .333-.356.6-.8.6-.444 0-.8.267-.8.6 0 .33-.32.6-.711.6-.391 0-1.271.512-1.956 1.138-1.209 1.104-1.262 1.114-1.79.364-.982-1.397-2.297-2.702-2.724-2.702-.23 0-.419-.27-.419-.6 0-.33-.27-.6-.6-.6-.33 0-.6-.276-.6-.613 0-.336-.27-.716-.6-.842-.33-.127-.6-.456-.6-.73 0-.466-1.181-1.716-4.913-5.202-.833-.777-1.778-1.413-2.1-1.413a.595.595 0 0 1-.587-.6c0-.33-.27-.6-.6-.6-.33 0-.6-.27-.6-.6 0-.33-.27-.6-.6-.6-.33 0-.601-.225-.603-.5-.003-.554-2.373-2.3-3.122-2.3-.261 0-.475-.27-.475-.6 0-.33-.276-.6-.613-.6-.336 0-.716-.27-.842-.6-.132-.342-.728-.6-1.388-.6-.762 0-1.157-.205-1.157-.6 0-.33-.27-.6-.6-.6-.33 0-.6-.27-.6-.6 0-.4-.4-.6-1.2-.6-.8 0-1.2-.2-1.2-.6 0-.333-.356-.6-.8-.6-.44 0-1.139-.315-1.553-.7-1.465-1.363-2.618-2.1-3.286-2.1-.371 0-.779-.27-.906-.6-.126-.33-.666-.6-1.2-.6-.533 0-1.073-.27-1.2-.6-.132-.344-.729-.6-1.4-.6-.67 0-1.268-.256-1.4-.6-.152-.396-.778-.6-1.842-.6-1.167 0-1.613-.166-1.613-.6a.6.6 0 0 0-.598-.6c-.525 0-.61-4.247-.7-34.9L289 23.4l-32.049-.102c-28.14-.09-32.11-.029-32.549.5M262.548 50.9c.404 1.508.281 22.17-.138 23.274-.326.858-.644 1.026-1.939 1.026-5.368 0-16.388 3.811-20.471 7.079-6.943 5.558-10.777 10.813-12.784 17.521-.86 2.875-1.832 11.349-1.354 11.81.186.179 7.808.406 16.938.503 14.978.16 16.952.259 20.2 1.006 1.98.456 4.802 1.092 6.272 1.414 1.469.322 2.895.723 3.169.892.274.169 1.141.444 1.928.61 1.444.305 4.187 1.223 6.031 2.018.55.237 1.54.652 2.2.922 5.37 2.197 14.763 7.492 17.204 9.698.442.4 1.651 1.409 2.686 2.242 3.893 3.135 11.51 11.746 11.51 13.012 0 .206.229.565.509.797.97.805 5.271 9.834 6.515 13.676.392 1.21.952 2.767 1.244 3.46.293.694.532 1.66.532 2.147 0 .487.257 1.72.571 2.739.993 3.228 1.829 8.649 1.835 11.907.006 3.264.497 5.053.9 3.284.425-1.861 3.976-10.484 4.394-10.67.165-.074.3-.409.3-.745s.9-2.101 2-3.922c1.1-1.821 2-3.43 2-3.575 0-3.18 19.36-21.825 22.662-21.825.222 0 2.83-1.146 4.569-2.008 4.127-2.044 12.723-2.56 13.212-.792.34 1.226.443 172.24.105 173.5-.532 1.984-11.269.502-16.453-2.271-8.619-4.611-14.215-9.437-20.526-17.701-1.963-2.57-3.569-4.795-3.569-4.945 0-.15-.871-1.737-1.935-3.527-1.839-3.094-3.265-5.896-3.265-6.415 0-.132-.519-1.364-1.153-2.74-.634-1.376-1.252-2.861-1.373-3.301-1.016-3.673-1.874-4.529-1.874-1.868 0 1.3-.694 4.236-1.672 7.068-.227.66-.542 1.92-.698 2.8-.156.88-.466 1.96-.689 2.4-1.441 2.842-1.741 3.507-1.741 3.854 0 4.374-11.623 18.102-17.8 21.024-.66.312-2.19 1.094-3.4 1.738-1.21.644-2.404 1.174-2.654 1.177-.25.004-.97.276-1.6.605-.63.328-1.44.598-1.8.6-.36.001-1.17.271-1.8.6-.63.328-1.719.598-2.42.6-.701.001-1.781.206-2.4.456s-3.376.565-6.126.7l-5 .246-.2 18.4-.2 18.4-4-.021c-12.036-.064-25.857-7.372-35.778-18.917-2.205-2.566-7.598-10.732-7.636-11.563-.007-.164-.361-1.019-.786-1.899-.425-.88-.779-1.801-.786-2.046-.067-2.182-10.032-3.928-12.71-2.227-.38.242-.52 4.561-.6 18.494L212.6 349.8l-3.2.127c-3.941.157-12.188-1.571-14.902-3.122-.384-.219-2.048-1.001-3.698-1.738-8.489-3.791-19.96-14.415-23.904-22.138a100.072 100.072 0 0 0-1.26-2.4c-.224-.401-.776-1.629-1.226-2.729-.45-1.1-1.157-2.63-1.572-3.4l-.754-1.4-13.942-.228c-12.928-.211-15.388-.391-21.942-1.61-1.1-.204-3.26-.565-4.8-.801-1.54-.237-2.98-.57-3.2-.742-.22-.172-1.39-.438-2.6-.592-2.316-.293-5.348-1.135-7.46-2.069-.694-.307-1.453-.558-1.687-.558-.234 0-1.017-.252-1.739-.56a97.881 97.881 0 0 0-3.114-1.236c-.99-.373-2.34-.908-3-1.19-.66-.283-2.01-.84-3-1.24-.99-.399-2.015-.885-2.278-1.08-.262-.195-2.416-1.344-4.785-2.553-4.263-2.177-4.885-2.558-10.337-6.333-1.54-1.067-3.417-2.364-4.172-2.884-6.593-4.543-18.453-17.221-24.828-26.54a54.31 54.31 0 0 0-1.245-1.73C45.172 257.369 34.8 237.86 34.8 236.309c0-.306-.264-.905-.587-1.333-.323-.427-.594-1.046-.603-1.376-.008-.33-.284-1.116-.612-1.746-.329-.63-.599-1.35-.6-1.6-.002-.25-.235-.904-.518-1.454-.508-.986-1.688-4.497-2.955-8.8a328.96 328.96 0 0 0-1.147-3.8c-1.684-5.409-3.078-12.397-2.913-14.6l.135-1.8 17.9-.104c14.919-.087 17.9-.196 17.9-.657 0-.304-1.383-2.598-3.073-5.096a750.523 750.523 0 0 1-4.381-6.543c-.719-1.1-1.458-2.18-1.64-2.4-.182-.22-.766-1.12-1.298-2-.531-.88-1.065-1.69-1.187-1.8-.43-.389-2.021-2.771-2.021-3.026 0-.142-.495-.915-1.1-1.718-.605-.803-1.28-1.756-1.5-2.119-.22-.363-1.165-1.8-2.1-3.195-.935-1.394-1.7-2.819-1.7-3.165 0-.597 4.807-7.73 5.781-8.577.253-.22 1.17-1.3 2.037-2.4 3.813-4.835 11.837-12.758 16.982-16.769 1.43-1.114 2.926-2.321 3.324-2.681 1.232-1.113 9.738-6.75 10.186-6.75.233 0 .483-.161.557-.357.224-.601 14.41-8.013 15.419-8.057.173-.007 1.034-.361 1.914-.786.88-.425 1.804-.779 2.054-.786.25-.008.97-.283 1.6-.612.63-.328 1.45-.598 1.822-.6.372-.001.778-.166.902-.367.125-.201.99-.491 1.924-.645.934-.154 1.878-.421 2.098-.592.421-.328 4.485-1.468 7.2-2.02.88-.179 2.32-.507 3.2-.729 2.737-.69 5.87-1.246 9.268-1.646 1.797-.212 4.05-.56 5.006-.775.956-.214 5.281-.515 9.611-.669l7.874-.281.986-3.039c4.04-12.448 11.564-24.863 20.615-34.018 7.164-7.246 21.906-17.196 25.52-17.223.176-.002.77-.235 1.32-.519 2.736-1.413 10.744-3.795 17.6-5.235 7.177-1.508 10.755-1.73 28.853-1.787L262.307 50l.241.9M115.4 151.068c-12.138 2.831-15 8.603-15 30.25 0 17.424.693 20.437 5.818 25.282 2.873 2.716 3.159 2.929 4.348 3.227.569.143 1.034.388 1.034.546 0 .286 3.705 1.153 6.475 1.514 7.567.987 15.937-5.677 18.493-14.722.889-3.144.905-29.309.02-31.765-.317-.88-.579-1.905-.582-2.279-.037-4.185-7.619-10.645-14.206-12.103-3.185-.705-3.16-.705-6.4.05" fill="#040405"/></g></svg>